<?xml version="1.0" encoding="UTF-8" standalone="no"?>
<!DOCTYPE svg PUBLIC "-//W3C//DTD SVG 1.1//EN"
 "http://www.w3.org/Graphics/SVG/1.1/DTD/svg11.dtd">
<!-- Generated by graphviz version 2.42.3 (20191010.1750)
 -->
<!-- Title: graphe Pages: 1 -->
<svg width="181pt" height="392pt"
 viewBox="0.00 0.00 181.00 392.00" xmlns="http://www.w3.org/2000/svg" xmlns:xlink="http://www.w3.org/1999/xlink">
<g id="graph0" class="graph" transform="scale(1 1) rotate(0) translate(4 388)">
<title>graphe</title>
<polygon fill="white" stroke="transparent" points="-4,4 -4,-388 177,-388 177,4 -4,4"/>
<!-- 4 -->
<g id="node1" class="node">
<title>4</title>
<ellipse fill="none" stroke="black" cx="91" cy="-105" rx="27" ry="18"/>
<text text-anchor="middle" x="91" y="-101.3" font-family="Times,serif" font-size="14.00">4</text>
</g>
<!-- 5 -->
<g id="node2" class="node">
<title>5</title>
<ellipse fill="none" stroke="black" cx="91" cy="-18" rx="27" ry="18"/>
<text text-anchor="middle" x="91" y="-14.3" font-family="Times,serif" font-size="14.00">5</text>
</g>
<!-- 4&#45;&gt;5 -->
<g id="edge1" class="edge">
<title>4&#45;&gt;5</title>
<path fill="none" stroke="black" d="M91,-86.8C91,-75.16 91,-59.55 91,-46.24"/>
<polygon fill="black" stroke="black" points="94.5,-46.18 91,-36.18 87.5,-46.18 94.5,-46.18"/>
<text text-anchor="middle" x="100.5" y="-57.8" font-family="Times,serif" font-size="14.00">14</text>
</g>
<!-- 1 -->
<g id="node3" class="node">
<title>1</title>
<ellipse fill="none" stroke="black" cx="27" cy="-192" rx="27" ry="18"/>
<text text-anchor="middle" x="27" y="-188.3" font-family="Times,serif" font-size="14.00">1</text>
</g>
<!-- 1&#45;&gt;4 -->
<g id="edge3" class="edge">
<title>1&#45;&gt;4</title>
<path fill="none" stroke="black" d="M38.74,-175.41C48.39,-162.59 62.22,-144.22 73.23,-129.6"/>
<polygon fill="black" stroke="black" points="76.12,-131.59 79.34,-121.49 70.52,-127.37 76.12,-131.59"/>
<text text-anchor="middle" x="67" y="-144.8" font-family="Times,serif" font-size="14.00">1</text>
</g>
<!-- 1&#45;&gt;5 -->
<g id="edge2" class="edge">
<title>1&#45;&gt;5</title>
<path fill="none" stroke="black" d="M25.49,-173.72C24.29,-152.49 24.41,-115.74 36,-87 43.15,-69.27 56.56,-52.54 68.35,-40.11"/>
<polygon fill="black" stroke="black" points="70.88,-42.53 75.42,-32.95 65.9,-37.61 70.88,-42.53"/>
<text text-anchor="middle" x="45.5" y="-101.3" font-family="Times,serif" font-size="14.00">21</text>
</g>
<!-- 3 -->
<g id="node4" class="node">
<title>3</title>
<ellipse fill="none" stroke="black" cx="85" cy="-279" rx="27" ry="18"/>
<text text-anchor="middle" x="85" y="-275.3" font-family="Times,serif" font-size="14.00">3</text>
</g>
<!-- 3&#45;&gt;4 -->
<g id="edge6" class="edge">
<title>3&#45;&gt;4</title>
<path fill="none" stroke="black" d="M85.6,-260.88C86.64,-231 88.8,-169.11 90.05,-133.27"/>
<polygon fill="black" stroke="black" points="93.55,-133.17 90.41,-123.05 86.56,-132.92 93.55,-133.17"/>
<text text-anchor="middle" x="93" y="-188.3" font-family="Times,serif" font-size="14.00">5</text>
</g>
<!-- 3&#45;&gt;1 -->
<g id="edge4" class="edge">
<title>3&#45;&gt;1</title>
<path fill="none" stroke="black" d="M72.28,-263.01C67.32,-256.94 61.71,-249.77 57,-243 51.46,-235.03 45.86,-226.01 41.02,-217.85"/>
<polygon fill="black" stroke="black" points="43.98,-215.99 35.93,-209.11 37.93,-219.51 43.98,-215.99"/>
<text text-anchor="middle" x="66.5" y="-231.8" font-family="Times,serif" font-size="14.00">11</text>
</g>
<!-- 2 -->
<g id="node5" class="node">
<title>2</title>
<ellipse fill="none" stroke="black" cx="146" cy="-192" rx="27" ry="18"/>
<text text-anchor="middle" x="146" y="-188.3" font-family="Times,serif" font-size="14.00">2</text>
</g>
<!-- 3&#45;&gt;2 -->
<g id="edge5" class="edge">
<title>3&#45;&gt;2</title>
<path fill="none" stroke="black" d="M96.19,-262.41C105.3,-249.71 118.33,-231.56 128.77,-217.01"/>
<polygon fill="black" stroke="black" points="131.9,-218.66 134.88,-208.49 126.21,-214.58 131.9,-218.66"/>
<text text-anchor="middle" x="124" y="-231.8" font-family="Times,serif" font-size="14.00">2</text>
</g>
<!-- 2&#45;&gt;4 -->
<g id="edge10" class="edge">
<title>2&#45;&gt;4</title>
<path fill="none" stroke="black" d="M135.65,-175.01C127.51,-162.43 116.03,-144.68 106.74,-130.33"/>
<polygon fill="black" stroke="black" points="109.67,-128.41 101.3,-121.92 103.79,-132.21 109.67,-128.41"/>
<text text-anchor="middle" x="130.5" y="-144.8" font-family="Times,serif" font-size="14.00">12</text>
</g>
<!-- 2&#45;&gt;5 -->
<g id="edge11" class="edge">
<title>2&#45;&gt;5</title>
<path fill="none" stroke="black" d="M145.93,-173.76C145.65,-164.07 144.9,-151.79 143,-141 135.94,-100.86 132.76,-90.18 114,-54 112.13,-50.4 109.99,-46.71 107.77,-43.13"/>
<polygon fill="black" stroke="black" points="110.63,-41.1 102.25,-34.61 104.75,-44.91 110.63,-41.1"/>
<text text-anchor="middle" x="148.5" y="-101.3" font-family="Times,serif" font-size="14.00">10</text>
</g>
<!-- 0 -->
<g id="node6" class="node">
<title>0</title>
<ellipse fill="none" stroke="black" cx="85" cy="-366" rx="27" ry="18"/>
<text text-anchor="middle" x="85" y="-362.3" font-family="Times,serif" font-size="14.00">0</text>
</g>
<!-- 0&#45;&gt;1 -->
<g id="edge7" class="edge">
<title>0&#45;&gt;1</title>
<path fill="none" stroke="black" d="M71.91,-350.25C61.14,-337.21 46.48,-317.18 39,-297 29.76,-272.07 27.16,-241.67 26.63,-220.2"/>
<polygon fill="black" stroke="black" points="30.13,-220.1 26.52,-210.14 23.13,-220.18 30.13,-220.1"/>
<text text-anchor="middle" x="44" y="-275.3" font-family="Times,serif" font-size="14.00">7</text>
</g>
<!-- 0&#45;&gt;3 -->
<g id="edge8" class="edge">
<title>0&#45;&gt;3</title>
<path fill="none" stroke="black" d="M85,-347.8C85,-336.16 85,-320.55 85,-307.24"/>
<polygon fill="black" stroke="black" points="88.5,-307.18 85,-297.18 81.5,-307.18 88.5,-307.18"/>
<text text-anchor="middle" x="94.5" y="-318.8" font-family="Times,serif" font-size="14.00">10</text>
</g>
<!-- 0&#45;&gt;2 -->
<g id="edge9" class="edge">
<title>0&#45;&gt;2</title>
<path fill="none" stroke="black" d="M96.25,-349.39C100.24,-343.48 104.59,-336.58 108,-330 126.44,-294.44 136.77,-248.92 141.86,-220.35"/>
<polygon fill="black" stroke="black" points="145.35,-220.73 143.56,-210.28 138.45,-219.56 145.35,-220.73"/>
<text text-anchor="middle" x="137" y="-275.3" font-family="Times,serif" font-size="14.00">8</text>
</g>
</g>
</svg>
