<?xml version="1.0" encoding="UTF-8" standalone="no"?>
<!DOCTYPE svg PUBLIC "-//W3C//DTD SVG 1.1//EN"
 "http://www.w3.org/Graphics/SVG/1.1/DTD/svg11.dtd">
<!-- Generated by graphviz version 2.42.3 (20191010.1750)
 -->
<!-- Title: graphe Pages: 1 -->
<svg width="278pt" height="305pt"
 viewBox="0.00 0.00 278.00 305.00" xmlns="http://www.w3.org/2000/svg" xmlns:xlink="http://www.w3.org/1999/xlink">
<g id="graph0" class="graph" transform="scale(1 1) rotate(0) translate(4 301)">
<title>graphe</title>
<polygon fill="white" stroke="transparent" points="-4,4 -4,-301 274,-301 274,4 -4,4"/>
<!-- 4 -->
<g id="node1" class="node">
<title>4</title>
<ellipse fill="none" stroke="black" cx="27" cy="-192" rx="27" ry="18"/>
<text text-anchor="middle" x="27" y="-188.3" font-family="Times,serif" font-size="14.00">4</text>
</g>
<!-- 8 -->
<g id="node2" class="node">
<title>8</title>
<ellipse fill="none" stroke="black" cx="27" cy="-105" rx="27" ry="18"/>
<text text-anchor="middle" x="27" y="-101.3" font-family="Times,serif" font-size="14.00">8</text>
</g>
<!-- 4&#45;&gt;8 -->
<g id="edge1" class="edge">
<title>4&#45;&gt;8</title>
<path fill="none" stroke="black" d="M27,-173.8C27,-162.16 27,-146.55 27,-133.24"/>
<polygon fill="black" stroke="black" points="30.5,-133.18 27,-123.18 23.5,-133.18 30.5,-133.18"/>
<text text-anchor="middle" x="32" y="-144.8" font-family="Times,serif" font-size="14.00">1</text>
</g>
<!-- 12 -->
<g id="node6" class="node">
<title>12</title>
<ellipse fill="none" stroke="black" cx="139" cy="-18" rx="27" ry="18"/>
<text text-anchor="middle" x="139" y="-14.3" font-family="Times,serif" font-size="14.00">12</text>
</g>
<!-- 8&#45;&gt;12 -->
<g id="edge4" class="edge">
<title>8&#45;&gt;12</title>
<path fill="none" stroke="black" d="M44.5,-90.72C62.99,-76.68 92.34,-54.41 113.43,-38.41"/>
<polygon fill="black" stroke="black" points="115.77,-41.02 121.62,-32.19 111.54,-35.45 115.77,-41.02"/>
<text text-anchor="middle" x="95" y="-57.8" font-family="Times,serif" font-size="14.00">1</text>
</g>
<!-- 1 -->
<g id="node3" class="node">
<title>1</title>
<ellipse fill="none" stroke="black" cx="243" cy="-192" rx="27" ry="18"/>
<text text-anchor="middle" x="243" y="-188.3" font-family="Times,serif" font-size="14.00">1</text>
</g>
<!-- 7 -->
<g id="node4" class="node">
<title>7</title>
<ellipse fill="none" stroke="black" cx="243" cy="-105" rx="27" ry="18"/>
<text text-anchor="middle" x="243" y="-101.3" font-family="Times,serif" font-size="14.00">7</text>
</g>
<!-- 1&#45;&gt;7 -->
<g id="edge2" class="edge">
<title>1&#45;&gt;7</title>
<path fill="none" stroke="black" d="M243,-173.8C243,-162.16 243,-146.55 243,-133.24"/>
<polygon fill="black" stroke="black" points="246.5,-133.18 243,-123.18 239.5,-133.18 246.5,-133.18"/>
<text text-anchor="middle" x="248" y="-144.8" font-family="Times,serif" font-size="14.00">1</text>
</g>
<!-- 7&#45;&gt;12 -->
<g id="edge6" class="edge">
<title>7&#45;&gt;12</title>
<path fill="none" stroke="black" d="M226.29,-90.34C209.21,-76.38 182.51,-54.56 163.13,-38.72"/>
<polygon fill="black" stroke="black" points="165.28,-35.96 155.33,-32.34 160.85,-41.38 165.28,-35.96"/>
<text text-anchor="middle" x="202" y="-57.8" font-family="Times,serif" font-size="14.00">1</text>
</g>
<!-- 11 -->
<g id="node5" class="node">
<title>11</title>
<ellipse fill="none" stroke="black" cx="99" cy="-105" rx="27" ry="18"/>
<text text-anchor="middle" x="99" y="-101.3" font-family="Times,serif" font-size="14.00">11</text>
</g>
<!-- 11&#45;&gt;12 -->
<g id="edge3" class="edge">
<title>11&#45;&gt;12</title>
<path fill="none" stroke="black" d="M106.71,-87.61C112.47,-75.38 120.44,-58.44 127.02,-44.46"/>
<polygon fill="black" stroke="black" points="130.22,-45.88 131.31,-35.34 123.89,-42.9 130.22,-45.88"/>
<text text-anchor="middle" x="127" y="-57.8" font-family="Times,serif" font-size="14.00">1</text>
</g>
<!-- 2 -->
<g id="node7" class="node">
<title>2</title>
<ellipse fill="none" stroke="black" cx="171" cy="-105" rx="27" ry="18"/>
<text text-anchor="middle" x="171" y="-101.3" font-family="Times,serif" font-size="14.00">2</text>
</g>
<!-- 2&#45;&gt;12 -->
<g id="edge5" class="edge">
<title>2&#45;&gt;12</title>
<path fill="none" stroke="black" d="M164.68,-87.21C160.16,-75.22 154,-58.85 148.85,-45.16"/>
<polygon fill="black" stroke="black" points="152.11,-43.88 145.31,-35.76 145.56,-46.35 152.11,-43.88"/>
<text text-anchor="middle" x="161" y="-57.8" font-family="Times,serif" font-size="14.00">1</text>
</g>
<!-- 6 -->
<g id="node8" class="node">
<title>6</title>
<ellipse fill="none" stroke="black" cx="171" cy="-192" rx="27" ry="18"/>
<text text-anchor="middle" x="171" y="-188.3" font-family="Times,serif" font-size="14.00">6</text>
</g>
<!-- 6&#45;&gt;7 -->
<g id="edge8" class="edge">
<title>6&#45;&gt;7</title>
<path fill="none" stroke="black" d="M183.87,-175.8C194.93,-162.75 211.04,-143.74 223.65,-128.85"/>
<polygon fill="black" stroke="black" points="226.45,-130.96 230.24,-121.06 221.11,-126.43 226.45,-130.96"/>
<text text-anchor="middle" x="216" y="-144.8" font-family="Times,serif" font-size="14.00">0</text>
</g>
<!-- 6&#45;&gt;11 -->
<g id="edge9" class="edge">
<title>6&#45;&gt;11</title>
<path fill="none" stroke="black" d="M158.13,-175.8C147.07,-162.75 130.96,-143.74 118.35,-128.85"/>
<polygon fill="black" stroke="black" points="120.89,-126.43 111.76,-121.06 115.55,-130.96 120.89,-126.43"/>
<text text-anchor="middle" x="144" y="-144.8" font-family="Times,serif" font-size="14.00">0</text>
</g>
<!-- 6&#45;&gt;2 -->
<g id="edge7" class="edge">
<title>6&#45;&gt;2</title>
<path fill="none" stroke="black" d="M171,-173.8C171,-162.16 171,-146.55 171,-133.24"/>
<polygon fill="black" stroke="black" points="174.5,-133.18 171,-123.18 167.5,-133.18 174.5,-133.18"/>
<text text-anchor="middle" x="176" y="-144.8" font-family="Times,serif" font-size="14.00">1</text>
</g>
<!-- 0 -->
<g id="node9" class="node">
<title>0</title>
<ellipse fill="none" stroke="black" cx="134" cy="-279" rx="27" ry="18"/>
<text text-anchor="middle" x="134" y="-275.3" font-family="Times,serif" font-size="14.00">0</text>
</g>
<!-- 0&#45;&gt;4 -->
<g id="edge10" class="edge">
<title>0&#45;&gt;4</title>
<path fill="none" stroke="black" d="M117.28,-264.72C99.8,-250.83 72.15,-228.87 52.05,-212.9"/>
<polygon fill="black" stroke="black" points="53.96,-209.95 43.95,-206.47 49.61,-215.43 53.96,-209.95"/>
<text text-anchor="middle" x="92" y="-231.8" font-family="Times,serif" font-size="14.00">1</text>
</g>
<!-- 0&#45;&gt;1 -->
<g id="edge11" class="edge">
<title>0&#45;&gt;1</title>
<path fill="none" stroke="black" d="M151.03,-264.72C169.03,-250.68 197.59,-228.41 218.11,-212.41"/>
<polygon fill="black" stroke="black" points="220.35,-215.1 226.09,-206.19 216.05,-209.58 220.35,-215.1"/>
<text text-anchor="middle" x="200" y="-231.8" font-family="Times,serif" font-size="14.00">1</text>
</g>
<!-- 0&#45;&gt;6 -->
<g id="edge12" class="edge">
<title>0&#45;&gt;6</title>
<path fill="none" stroke="black" d="M141.13,-261.61C146.37,-249.58 153.6,-232.98 159.63,-219.13"/>
<polygon fill="black" stroke="black" points="162.98,-220.19 163.76,-209.63 156.56,-217.4 162.98,-220.19"/>
<text text-anchor="middle" x="159" y="-231.8" font-family="Times,serif" font-size="14.00">1</text>
</g>
<!-- 5 -->
<g id="node10" class="node">
<title>5</title>
<ellipse fill="none" stroke="black" cx="99" cy="-192" rx="27" ry="18"/>
<text text-anchor="middle" x="99" y="-188.3" font-family="Times,serif" font-size="14.00">5</text>
</g>
<!-- 0&#45;&gt;5 -->
<g id="edge13" class="edge">
<title>0&#45;&gt;5</title>
<path fill="none" stroke="black" d="M127.09,-261.21C122.12,-249.14 115.32,-232.64 109.66,-218.89"/>
<polygon fill="black" stroke="black" points="112.83,-217.38 105.78,-209.47 106.35,-220.05 112.83,-217.38"/>
<text text-anchor="middle" x="124" y="-231.8" font-family="Times,serif" font-size="14.00">1</text>
</g>
<!-- 5&#45;&gt;8 -->
<g id="edge15" class="edge">
<title>5&#45;&gt;8</title>
<path fill="none" stroke="black" d="M86.13,-175.8C75.07,-162.75 58.96,-143.74 46.35,-128.85"/>
<polygon fill="black" stroke="black" points="48.89,-126.43 39.76,-121.06 43.55,-130.96 48.89,-126.43"/>
<text text-anchor="middle" x="73" y="-144.8" font-family="Times,serif" font-size="14.00">0</text>
</g>
<!-- 5&#45;&gt;11 -->
<g id="edge14" class="edge">
<title>5&#45;&gt;11</title>
<path fill="none" stroke="black" d="M99,-173.8C99,-162.16 99,-146.55 99,-133.24"/>
<polygon fill="black" stroke="black" points="102.5,-133.18 99,-123.18 95.5,-133.18 102.5,-133.18"/>
<text text-anchor="middle" x="104" y="-144.8" font-family="Times,serif" font-size="14.00">1</text>
</g>
</g>
</svg>
