<?xml version="1.0" encoding="UTF-8" standalone="no"?>
<!DOCTYPE svg PUBLIC "-//W3C//DTD SVG 1.1//EN"
 "http://www.w3.org/Graphics/SVG/1.1/DTD/svg11.dtd">
<!-- Generated by graphviz version 2.42.3 (20191010.1750)
 -->
<!-- Title: graphe Pages: 1 -->
<svg width="278pt" height="305pt"
 viewBox="0.00 0.00 278.00 305.00" xmlns="http://www.w3.org/2000/svg" xmlns:xlink="http://www.w3.org/1999/xlink">
<g id="graph0" class="graph" transform="scale(1 1) rotate(0) translate(4 301)">
<title>graphe</title>
<polygon fill="white" stroke="transparent" points="-4,4 -4,-301 274,-301 274,4 -4,4"/>
<!-- 6 -->
<g id="node1" class="node">
<title>6</title>
<ellipse fill="none" stroke="black" cx="99" cy="-105" rx="27" ry="18"/>
<text text-anchor="middle" x="99" y="-101.3" font-family="Times,serif" font-size="14.00">6</text>
</g>
<!-- 7 -->
<g id="node2" class="node">
<title>7</title>
<ellipse fill="none" stroke="black" cx="134" cy="-18" rx="27" ry="18"/>
<text text-anchor="middle" x="134" y="-14.3" font-family="Times,serif" font-size="14.00">7</text>
</g>
<!-- 6&#45;&gt;7 -->
<g id="edge1" class="edge">
<title>6&#45;&gt;7</title>
<path fill="none" stroke="black" d="M105.91,-87.21C110.88,-75.14 117.68,-58.64 123.34,-44.89"/>
<polygon fill="black" stroke="black" points="126.65,-46.05 127.22,-35.47 120.17,-43.38 126.65,-46.05"/>
<text text-anchor="middle" x="124" y="-57.8" font-family="Times,serif" font-size="14.00">0</text>
</g>
<!-- 4 -->
<g id="node3" class="node">
<title>4</title>
<ellipse fill="none" stroke="black" cx="27" cy="-105" rx="27" ry="18"/>
<text text-anchor="middle" x="27" y="-101.3" font-family="Times,serif" font-size="14.00">4</text>
</g>
<!-- 4&#45;&gt;7 -->
<g id="edge2" class="edge">
<title>4&#45;&gt;7</title>
<path fill="none" stroke="black" d="M43.72,-90.72C61.2,-76.83 88.85,-54.87 108.95,-38.9"/>
<polygon fill="black" stroke="black" points="111.39,-41.43 117.05,-32.47 107.04,-35.95 111.39,-41.43"/>
<text text-anchor="middle" x="92" y="-57.8" font-family="Times,serif" font-size="14.00">0</text>
</g>
<!-- 3 -->
<g id="node4" class="node">
<title>3</title>
<ellipse fill="none" stroke="black" cx="171" cy="-105" rx="27" ry="18"/>
<text text-anchor="middle" x="171" y="-101.3" font-family="Times,serif" font-size="14.00">3</text>
</g>
<!-- 3&#45;&gt;7 -->
<g id="edge3" class="edge">
<title>3&#45;&gt;7</title>
<path fill="none" stroke="black" d="M163.87,-87.61C158.63,-75.58 151.4,-58.98 145.37,-45.13"/>
<polygon fill="black" stroke="black" points="148.44,-43.4 141.24,-35.63 142.02,-46.19 148.44,-43.4"/>
<text text-anchor="middle" x="160" y="-57.8" font-family="Times,serif" font-size="14.00">1</text>
</g>
<!-- 5 -->
<g id="node5" class="node">
<title>5</title>
<ellipse fill="none" stroke="black" cx="243" cy="-105" rx="27" ry="18"/>
<text text-anchor="middle" x="243" y="-101.3" font-family="Times,serif" font-size="14.00">5</text>
</g>
<!-- 5&#45;&gt;7 -->
<g id="edge4" class="edge">
<title>5&#45;&gt;7</title>
<path fill="none" stroke="black" d="M225.97,-90.72C207.97,-76.68 179.41,-54.41 158.89,-38.41"/>
<polygon fill="black" stroke="black" points="160.95,-35.58 150.91,-32.19 156.65,-41.1 160.95,-35.58"/>
<text text-anchor="middle" x="201" y="-57.8" font-family="Times,serif" font-size="14.00">1</text>
</g>
<!-- 1 -->
<g id="node6" class="node">
<title>1</title>
<ellipse fill="none" stroke="black" cx="171" cy="-192" rx="27" ry="18"/>
<text text-anchor="middle" x="171" y="-188.3" font-family="Times,serif" font-size="14.00">1</text>
</g>
<!-- 1&#45;&gt;6 -->
<g id="edge6" class="edge">
<title>1&#45;&gt;6</title>
<path fill="none" stroke="black" d="M158.13,-175.8C147.07,-162.75 130.96,-143.74 118.35,-128.85"/>
<polygon fill="black" stroke="black" points="120.89,-126.43 111.76,-121.06 115.55,-130.96 120.89,-126.43"/>
<text text-anchor="middle" x="145" y="-144.8" font-family="Times,serif" font-size="14.00">0</text>
</g>
<!-- 1&#45;&gt;3 -->
<g id="edge5" class="edge">
<title>1&#45;&gt;3</title>
<path fill="none" stroke="black" d="M171,-173.8C171,-162.16 171,-146.55 171,-133.24"/>
<polygon fill="black" stroke="black" points="174.5,-133.18 171,-123.18 167.5,-133.18 174.5,-133.18"/>
<text text-anchor="middle" x="176" y="-144.8" font-family="Times,serif" font-size="14.00">1</text>
</g>
<!-- 0 -->
<g id="node7" class="node">
<title>0</title>
<ellipse fill="none" stroke="black" cx="206" cy="-279" rx="27" ry="18"/>
<text text-anchor="middle" x="206" y="-275.3" font-family="Times,serif" font-size="14.00">0</text>
</g>
<!-- 0&#45;&gt;1 -->
<g id="edge7" class="edge">
<title>0&#45;&gt;1</title>
<path fill="none" stroke="black" d="M199.09,-261.21C194.12,-249.14 187.32,-232.64 181.66,-218.89"/>
<polygon fill="black" stroke="black" points="184.83,-217.38 177.78,-209.47 178.35,-220.05 184.83,-217.38"/>
<text text-anchor="middle" x="196" y="-231.8" font-family="Times,serif" font-size="14.00">1</text>
</g>
<!-- 2 -->
<g id="node8" class="node">
<title>2</title>
<ellipse fill="none" stroke="black" cx="243" cy="-192" rx="27" ry="18"/>
<text text-anchor="middle" x="243" y="-188.3" font-family="Times,serif" font-size="14.00">2</text>
</g>
<!-- 0&#45;&gt;2 -->
<g id="edge8" class="edge">
<title>0&#45;&gt;2</title>
<path fill="none" stroke="black" d="M213.13,-261.61C218.37,-249.58 225.6,-232.98 231.63,-219.13"/>
<polygon fill="black" stroke="black" points="234.98,-220.19 235.76,-209.63 228.56,-217.4 234.98,-220.19"/>
<text text-anchor="middle" x="231" y="-231.8" font-family="Times,serif" font-size="14.00">1</text>
</g>
<!-- 2&#45;&gt;5 -->
<g id="edge9" class="edge">
<title>2&#45;&gt;5</title>
<path fill="none" stroke="black" d="M243,-173.8C243,-162.16 243,-146.55 243,-133.24"/>
<polygon fill="black" stroke="black" points="246.5,-133.18 243,-123.18 239.5,-133.18 246.5,-133.18"/>
<text text-anchor="middle" x="248" y="-144.8" font-family="Times,serif" font-size="14.00">1</text>
</g>
</g>
</svg>
