<?xml version="1.0" encoding="UTF-8" standalone="no"?>
<!DOCTYPE svg PUBLIC "-//W3C//DTD SVG 1.1//EN"
 "http://www.w3.org/Graphics/SVG/1.1/DTD/svg11.dtd">
<!-- Generated by graphviz version 2.42.3 (20191010.1750)
 -->
<!-- Title: graphe Pages: 1 -->
<svg width="292pt" height="608pt"
 viewBox="0.00 0.00 292.00 608.00" xmlns="http://www.w3.org/2000/svg" xmlns:xlink="http://www.w3.org/1999/xlink">
<g id="graph0" class="graph" transform="scale(1 1) rotate(0) translate(4 604)">
<title>graphe</title>
<polygon fill="white" stroke="transparent" points="-4,4 -4,-604 288,-604 288,4 -4,4"/>
<!-- 9 -->
<g id="node1" class="node">
<title>9</title>
<ellipse fill="none" stroke="black" cx="93" cy="-192" rx="27" ry="18"/>
<text text-anchor="middle" x="93" y="-188.3" font-family="Times,serif" font-size="14.00">9</text>
</g>
<!-- 10 -->
<g id="node2" class="node">
<title>10</title>
<ellipse fill="none" stroke="black" cx="197" cy="-105" rx="27" ry="18"/>
<text text-anchor="middle" x="197" y="-101.3" font-family="Times,serif" font-size="14.00">10</text>
</g>
<!-- 9&#45;&gt;10 -->
<g id="edge1" class="edge">
<title>9&#45;&gt;10</title>
<path fill="none" stroke="black" d="M102.82,-175.17C109.97,-164.56 120.39,-150.8 132,-141 141.95,-132.6 154.23,-125.36 165.43,-119.68"/>
<polygon fill="black" stroke="black" points="167.04,-122.79 174.51,-115.28 163.99,-116.49 167.04,-122.79"/>
<text text-anchor="middle" x="137" y="-144.8" font-family="Times,serif" font-size="14.00">1</text>
</g>
<!-- 12 -->
<g id="node7" class="node">
<title>12</title>
<ellipse fill="none" stroke="black" cx="228" cy="-18" rx="27" ry="18"/>
<text text-anchor="middle" x="228" y="-14.3" font-family="Times,serif" font-size="14.00">12</text>
</g>
<!-- 10&#45;&gt;12 -->
<g id="edge7" class="edge">
<title>10&#45;&gt;12</title>
<path fill="none" stroke="black" d="M203.12,-87.21C207.5,-75.22 213.47,-58.85 218.46,-45.16"/>
<polygon fill="black" stroke="black" points="221.75,-46.35 221.89,-35.76 215.17,-43.95 221.75,-46.35"/>
<text text-anchor="middle" x="219" y="-57.8" font-family="Times,serif" font-size="14.00">1</text>
</g>
<!-- 11 -->
<g id="node3" class="node">
<title>11</title>
<ellipse fill="none" stroke="black" cx="27" cy="-300" rx="27" ry="18"/>
<text text-anchor="middle" x="27" y="-296.3" font-family="Times,serif" font-size="14.00">11</text>
</g>
<!-- 11&#45;&gt;9 -->
<g id="edge2" class="edge">
<title>11&#45;&gt;9</title>
<path fill="none" stroke="black" d="M37.02,-282.9C47.84,-265.52 65.21,-237.64 77.73,-217.53"/>
<polygon fill="black" stroke="black" points="80.78,-219.24 83.1,-208.9 74.84,-215.54 80.78,-219.24"/>
<text text-anchor="middle" x="75" y="-242.3" font-family="Times,serif" font-size="14.00">1</text>
</g>
<!-- 8 -->
<g id="node4" class="node">
<title>8</title>
<ellipse fill="none" stroke="black" cx="27" cy="-387" rx="27" ry="18"/>
<text text-anchor="middle" x="27" y="-383.3" font-family="Times,serif" font-size="14.00">8</text>
</g>
<!-- 8&#45;&gt;11 -->
<g id="edge3" class="edge">
<title>8&#45;&gt;11</title>
<path fill="none" stroke="black" d="M27,-368.8C27,-357.16 27,-341.55 27,-328.24"/>
<polygon fill="black" stroke="black" points="30.5,-328.18 27,-318.18 23.5,-328.18 30.5,-328.18"/>
<text text-anchor="middle" x="32" y="-339.8" font-family="Times,serif" font-size="14.00">1</text>
</g>
<!-- 6 -->
<g id="node5" class="node">
<title>6</title>
<ellipse fill="none" stroke="black" cx="99" cy="-300" rx="27" ry="18"/>
<text text-anchor="middle" x="99" y="-296.3" font-family="Times,serif" font-size="14.00">6</text>
</g>
<!-- 6&#45;&gt;9 -->
<g id="edge4" class="edge">
<title>6&#45;&gt;9</title>
<path fill="none" stroke="black" d="M98.04,-281.97C97.1,-265.38 95.65,-239.88 94.55,-220.43"/>
<polygon fill="black" stroke="black" points="98.04,-220.13 93.98,-210.34 91.05,-220.52 98.04,-220.13"/>
<text text-anchor="middle" x="102" y="-242.3" font-family="Times,serif" font-size="14.00">1</text>
</g>
<!-- 3 -->
<g id="node6" class="node">
<title>3</title>
<ellipse fill="none" stroke="black" cx="89" cy="-495" rx="27" ry="18"/>
<text text-anchor="middle" x="89" y="-491.3" font-family="Times,serif" font-size="14.00">3</text>
</g>
<!-- 3&#45;&gt;8 -->
<g id="edge5" class="edge">
<title>3&#45;&gt;8</title>
<path fill="none" stroke="black" d="M78.2,-478.14C74.25,-472.2 69.82,-465.35 66,-459 56.98,-444.02 47.53,-426.85 40.19,-413.14"/>
<polygon fill="black" stroke="black" points="43.26,-411.46 35.47,-404.28 37.08,-414.75 43.26,-411.46"/>
<text text-anchor="middle" x="71" y="-437.3" font-family="Times,serif" font-size="14.00">1</text>
</g>
<!-- 3&#45;&gt;6 -->
<g id="edge6" class="edge">
<title>3&#45;&gt;6</title>
<path fill="none" stroke="black" d="M89.89,-476.87C91.63,-443.32 95.49,-368.71 97.59,-328.29"/>
<polygon fill="black" stroke="black" points="101.09,-328.26 98.11,-318.09 94.1,-327.89 101.09,-328.26"/>
<text text-anchor="middle" x="101" y="-383.3" font-family="Times,serif" font-size="14.00">1</text>
</g>
<!-- 7 -->
<g id="node8" class="node">
<title>7</title>
<ellipse fill="none" stroke="black" cx="257" cy="-192" rx="27" ry="18"/>
<text text-anchor="middle" x="257" y="-188.3" font-family="Times,serif" font-size="14.00">7</text>
</g>
<!-- 7&#45;&gt;10 -->
<g id="edge8" class="edge">
<title>7&#45;&gt;10</title>
<path fill="none" stroke="black" d="M246,-175.41C237.03,-162.71 224.22,-144.56 213.95,-130.01"/>
<polygon fill="black" stroke="black" points="216.56,-127.64 207.94,-121.49 210.84,-131.68 216.56,-127.64"/>
<text text-anchor="middle" x="235" y="-144.8" font-family="Times,serif" font-size="14.00">1</text>
</g>
<!-- 7&#45;&gt;12 -->
<g id="edge9" class="edge">
<title>7&#45;&gt;12</title>
<path fill="none" stroke="black" d="M254.11,-173.88C249.08,-144 238.64,-82.11 232.6,-46.27"/>
<polygon fill="black" stroke="black" points="235.99,-45.33 230.87,-36.05 229.09,-46.49 235.99,-45.33"/>
<text text-anchor="middle" x="250" y="-101.3" font-family="Times,serif" font-size="14.00">1</text>
</g>
<!-- 4 -->
<g id="node9" class="node">
<title>4</title>
<ellipse fill="none" stroke="black" cx="156" cy="-246" rx="27" ry="18"/>
<text text-anchor="middle" x="156" y="-242.3" font-family="Times,serif" font-size="14.00">4</text>
</g>
<!-- 4&#45;&gt;10 -->
<g id="edge10" class="edge">
<title>4&#45;&gt;10</title>
<path fill="none" stroke="black" d="M158.48,-227.86C160.79,-213.35 164.68,-192.08 170,-174 174.19,-159.77 180.18,-144.37 185.45,-131.83"/>
<polygon fill="black" stroke="black" points="188.74,-133.04 189.47,-122.47 182.31,-130.27 188.74,-133.04"/>
<text text-anchor="middle" x="175" y="-188.3" font-family="Times,serif" font-size="14.00">1</text>
</g>
<!-- 5 -->
<g id="node10" class="node">
<title>5</title>
<ellipse fill="none" stroke="black" cx="212" cy="-300" rx="27" ry="18"/>
<text text-anchor="middle" x="212" y="-296.3" font-family="Times,serif" font-size="14.00">5</text>
</g>
<!-- 5&#45;&gt;10 -->
<g id="edge12" class="edge">
<title>5&#45;&gt;10</title>
<path fill="none" stroke="black" d="M210.67,-281.87C208.06,-248.32 202.26,-173.71 199.12,-133.29"/>
<polygon fill="black" stroke="black" points="202.59,-132.79 198.33,-123.09 195.61,-133.33 202.59,-132.79"/>
<text text-anchor="middle" x="209" y="-188.3" font-family="Times,serif" font-size="14.00">0</text>
</g>
<!-- 5&#45;&gt;7 -->
<g id="edge11" class="edge">
<title>5&#45;&gt;7</title>
<path fill="none" stroke="black" d="M219.03,-282.44C226.26,-265.4 237.63,-238.63 246.04,-218.81"/>
<polygon fill="black" stroke="black" points="249.33,-220.02 250.02,-209.45 242.89,-217.28 249.33,-220.02"/>
<text text-anchor="middle" x="246" y="-242.3" font-family="Times,serif" font-size="14.00">1</text>
</g>
<!-- 2 -->
<g id="node11" class="node">
<title>2</title>
<ellipse fill="none" stroke="black" cx="204" cy="-441" rx="27" ry="18"/>
<text text-anchor="middle" x="204" y="-437.3" font-family="Times,serif" font-size="14.00">2</text>
</g>
<!-- 2&#45;&gt;5 -->
<g id="edge13" class="edge">
<title>2&#45;&gt;5</title>
<path fill="none" stroke="black" d="M204.98,-422.96C206.34,-399.4 208.8,-356.64 210.42,-328.53"/>
<polygon fill="black" stroke="black" points="213.93,-328.37 211.01,-318.18 206.94,-327.97 213.93,-328.37"/>
<text text-anchor="middle" x="213" y="-383.3" font-family="Times,serif" font-size="14.00">1</text>
</g>
<!-- 0 -->
<g id="node12" class="node">
<title>0</title>
<ellipse fill="none" stroke="black" cx="152" cy="-582" rx="27" ry="18"/>
<text text-anchor="middle" x="152" y="-578.3" font-family="Times,serif" font-size="14.00">0</text>
</g>
<!-- 0&#45;&gt;3 -->
<g id="edge14" class="edge">
<title>0&#45;&gt;3</title>
<path fill="none" stroke="black" d="M140.44,-565.41C130.94,-552.59 117.33,-534.22 106.49,-519.6"/>
<polygon fill="black" stroke="black" points="109.25,-517.44 100.48,-511.49 103.62,-521.61 109.25,-517.44"/>
<text text-anchor="middle" x="130" y="-534.8" font-family="Times,serif" font-size="14.00">1</text>
</g>
<!-- 0&#45;&gt;2 -->
<g id="edge15" class="edge">
<title>0&#45;&gt;2</title>
<path fill="none" stroke="black" d="M158.8,-564.31C161.12,-558.52 163.71,-551.99 166,-546 176.09,-519.62 187.12,-489.25 194.68,-468.17"/>
<polygon fill="black" stroke="black" points="198.03,-469.22 198.1,-458.63 191.43,-466.87 198.03,-469.22"/>
<text text-anchor="middle" x="176" y="-534.8" font-family="Times,serif" font-size="14.00">1</text>
</g>
<!-- 1 -->
<g id="node13" class="node">
<title>1</title>
<ellipse fill="none" stroke="black" cx="152" cy="-387" rx="27" ry="18"/>
<text text-anchor="middle" x="152" y="-383.3" font-family="Times,serif" font-size="14.00">1</text>
</g>
<!-- 0&#45;&gt;1 -->
<g id="edge16" class="edge">
<title>0&#45;&gt;1</title>
<path fill="none" stroke="black" d="M152,-563.87C152,-530.32 152,-455.71 152,-415.29"/>
<polygon fill="black" stroke="black" points="155.5,-415.09 152,-405.09 148.5,-415.09 155.5,-415.09"/>
<text text-anchor="middle" x="157" y="-491.3" font-family="Times,serif" font-size="14.00">1</text>
</g>
<!-- 1&#45;&gt;6 -->
<g id="edge17" class="edge">
<title>1&#45;&gt;6</title>
<path fill="none" stroke="black" d="M139,-371.19C134.01,-365.14 128.45,-357.95 124,-351 119.17,-343.44 114.56,-334.83 110.66,-326.9"/>
<polygon fill="black" stroke="black" points="113.73,-325.21 106.27,-317.69 107.41,-328.22 113.73,-325.21"/>
<text text-anchor="middle" x="129" y="-339.8" font-family="Times,serif" font-size="14.00">1</text>
</g>
<!-- 1&#45;&gt;4 -->
<g id="edge19" class="edge">
<title>1&#45;&gt;4</title>
<path fill="none" stroke="black" d="M152.49,-368.96C153.17,-345.4 154.4,-302.64 155.21,-274.53"/>
<polygon fill="black" stroke="black" points="158.72,-274.28 155.51,-264.18 151.72,-274.08 158.72,-274.28"/>
<text text-anchor="middle" x="158" y="-339.8" font-family="Times,serif" font-size="14.00">1</text>
</g>
<!-- 1&#45;&gt;5 -->
<g id="edge18" class="edge">
<title>1&#45;&gt;5</title>
<path fill="none" stroke="black" d="M163,-370.41C171.97,-357.71 184.78,-339.56 195.05,-325.01"/>
<polygon fill="black" stroke="black" points="198.16,-326.68 201.06,-316.49 192.44,-322.64 198.16,-326.68"/>
<text text-anchor="middle" x="190" y="-339.8" font-family="Times,serif" font-size="14.00">1</text>
</g>
</g>
</svg>
