<?xml version="1.0" encoding="UTF-8" standalone="no"?>
<!DOCTYPE svg PUBLIC "-//W3C//DTD SVG 1.1//EN"
 "http://www.w3.org/Graphics/SVG/1.1/DTD/svg11.dtd">
<!-- Generated by graphviz version 2.42.3 (20191010.1750)
 -->
<!-- Title: graphe Pages: 1 -->
<svg width="189pt" height="326pt"
 viewBox="0.00 0.00 189.00 326.00" xmlns="http://www.w3.org/2000/svg" xmlns:xlink="http://www.w3.org/1999/xlink">
<g id="graph0" class="graph" transform="scale(1 1) rotate(0) translate(4 322)">
<title>graphe</title>
<polygon fill="white" stroke="transparent" points="-4,4 -4,-322 185,-322 185,4 -4,4"/>
<!-- 4 -->
<g id="node1" class="node">
<title>4</title>
<ellipse fill="none" stroke="black" cx="91" cy="-105" rx="27" ry="18"/>
<text text-anchor="middle" x="91" y="-101.3" font-family="Times,serif" font-size="14.00">4</text>
</g>
<!-- 5 -->
<g id="node2" class="node">
<title>5</title>
<ellipse fill="none" stroke="black" cx="122" cy="-18" rx="27" ry="18"/>
<text text-anchor="middle" x="122" y="-14.3" font-family="Times,serif" font-size="14.00">5</text>
</g>
<!-- 4&#45;&gt;5 -->
<g id="edge1" class="edge">
<title>4&#45;&gt;5</title>
<path fill="none" stroke="black" d="M97.12,-87.21C101.5,-75.22 107.47,-58.85 112.46,-45.16"/>
<polygon fill="black" stroke="black" points="115.75,-46.35 115.89,-35.76 109.17,-43.95 115.75,-46.35"/>
<text text-anchor="middle" x="113" y="-57.8" font-family="Times,serif" font-size="14.00">2</text>
</g>
<!-- 3 -->
<g id="node3" class="node">
<title>3</title>
<ellipse fill="none" stroke="black" cx="27" cy="-213" rx="27" ry="18"/>
<text text-anchor="middle" x="27" y="-209.3" font-family="Times,serif" font-size="14.00">3</text>
</g>
<!-- 3&#45;&gt;4 -->
<g id="edge2" class="edge">
<title>3&#45;&gt;4</title>
<path fill="none" stroke="black" d="M36.72,-195.9C47.21,-178.52 64.05,-150.64 76.19,-130.53"/>
<polygon fill="black" stroke="black" points="79.23,-132.27 81.4,-121.9 73.23,-128.65 79.23,-132.27"/>
<text text-anchor="middle" x="74" y="-155.3" font-family="Times,serif" font-size="14.00">0</text>
</g>
<!-- 2 -->
<g id="node4" class="node">
<title>2</title>
<ellipse fill="none" stroke="black" cx="99" cy="-213" rx="27" ry="18"/>
<text text-anchor="middle" x="99" y="-209.3" font-family="Times,serif" font-size="14.00">2</text>
</g>
<!-- 2&#45;&gt;4 -->
<g id="edge3" class="edge">
<title>2&#45;&gt;4</title>
<path fill="none" stroke="black" d="M97.71,-194.97C96.46,-178.28 94.52,-152.58 93.04,-133.08"/>
<polygon fill="black" stroke="black" points="96.52,-132.7 92.28,-122.99 89.54,-133.22 96.52,-132.7"/>
<text text-anchor="middle" x="101" y="-155.3" font-family="Times,serif" font-size="14.00">2</text>
</g>
<!-- 1 -->
<g id="node5" class="node">
<title>1</title>
<ellipse fill="none" stroke="black" cx="154" cy="-159" rx="27" ry="18"/>
<text text-anchor="middle" x="154" y="-155.3" font-family="Times,serif" font-size="14.00">1</text>
</g>
<!-- 1&#45;&gt;5 -->
<g id="edge4" class="edge">
<title>1&#45;&gt;5</title>
<path fill="none" stroke="black" d="M150.08,-140.96C144.63,-117.3 134.72,-74.26 128.25,-46.15"/>
<polygon fill="black" stroke="black" points="131.61,-45.14 125.96,-36.18 124.79,-46.71 131.61,-45.14"/>
<text text-anchor="middle" x="150" y="-101.3" font-family="Times,serif" font-size="14.00">1</text>
</g>
<!-- 0 -->
<g id="node6" class="node">
<title>0</title>
<ellipse fill="none" stroke="black" cx="99" cy="-300" rx="27" ry="18"/>
<text text-anchor="middle" x="99" y="-296.3" font-family="Times,serif" font-size="14.00">0</text>
</g>
<!-- 0&#45;&gt;3 -->
<g id="edge7" class="edge">
<title>0&#45;&gt;3</title>
<path fill="none" stroke="black" d="M86.13,-283.8C75.07,-270.75 58.96,-251.74 46.35,-236.85"/>
<polygon fill="black" stroke="black" points="48.89,-234.43 39.76,-229.06 43.55,-238.96 48.89,-234.43"/>
<text text-anchor="middle" x="73" y="-252.8" font-family="Times,serif" font-size="14.00">0</text>
</g>
<!-- 0&#45;&gt;2 -->
<g id="edge5" class="edge">
<title>0&#45;&gt;2</title>
<path fill="none" stroke="black" d="M99,-281.8C99,-270.16 99,-254.55 99,-241.24"/>
<polygon fill="black" stroke="black" points="102.5,-241.18 99,-231.18 95.5,-241.18 102.5,-241.18"/>
<text text-anchor="middle" x="104" y="-252.8" font-family="Times,serif" font-size="14.00">2</text>
</g>
<!-- 0&#45;&gt;1 -->
<g id="edge6" class="edge">
<title>0&#45;&gt;1</title>
<path fill="none" stroke="black" d="M108.8,-283C116.72,-269.52 127.72,-249.53 135,-231 140.56,-216.85 145.06,-200.49 148.28,-187.04"/>
<polygon fill="black" stroke="black" points="151.76,-187.51 150.59,-176.98 144.94,-185.95 151.76,-187.51"/>
<text text-anchor="middle" x="131" y="-252.8" font-family="Times,serif" font-size="14.00">1</text>
</g>
</g>
</svg>
